  0
SECTION
  2
HEADER
  9
$ACADVER
  1
AC1009
  9
$EXTMIN
 10
0.0
 20
0.0
 30
0.0
  9
$EXTMAX
 10
1000.0
 20
1000.0
 30
0.0
  9
$FILLMODE
 70
 0
  9
$SPLFRAME
 70
 1
  0
ENDSEC
  0
SECTION
  2
TABLES
  0
TABLE
  2
LAYER
 70
1
  0
LAYER
  2
0
 70
     0
 62
     7
  6
CONTINUOUS
  0
ENDTAB
  0
ENDSEC
  0
SECTION
  2
ENTITIES
  0
LINE
  8
0
 62
     0
 10
0.0950846
 20
124.083
 30
0.0
 11
433.483
 21
124.083
 31
0.0
  0
LINE
  8
0
 62
     0
 10
433.483
 20
124.083
 30
0.0
 11
433.483
 21
0.257693
 31
0.0
  0
LINE
  8
0
 62
     0
 10
433.483
 20
0.257693
 30
0.0
 11
0.0950846
 21
0.257693
 31
0.0
  0
LINE
  8
0
 62
     0
 10
0.0950846
 20
0.257693
 30
0.0
 11
0.0950846
 21
124.083
 31
0.0
  0
LINE
  8
0
 62
     0
 10
93.1072
 20
16.7831
 30
0.0
 11
93.1072
 21
12.0826
 31
0.0
  0
LINE
  8
0
 62
     0
 10
93.1072
 20
12.0826
 30
0.0
 11
84.431
 21
12.0826
 31
0.0
  0
LINE
  8
0
 62
     0
 10
84.431
 20
12.0826
 30
0.0
 11
84.431
 21
15.3128
 31
0.0
  0
LINE
  8
0
 62
     0
 10
84.431
 20
15.3128
 30
0.0
 11
77.6813
 21
15.3128
 31
0.0
  0
LINE
  8
0
 62
     0
 10
77.6813
 20
15.3128
 30
0.0
 11
77.6813
 21
12.0826
 31
0.0
  0
LINE
  8
0
 62
     0
 10
77.6813
 20
12.0826
 30
0.0
 11
76.8558
 21
12.0826
 31
0.0
  0
LINE
  8
0
 62
     0
 10
76.8558
 20
12.0826
 30
0.0
 11
76.8558
 21
9.28384
 31
0.0
  0
LINE
  8
0
 62
     0
 10
76.8558
 20
9.28384
 30
0.0
 11
77.6813
 21
9.28384
 31
0.0
  0
LINE
  8
0
 62
     0
 10
77.6813
 20
9.28384
 30
0.0
 11
77.6813
 21
3.01377
 31
0.0
  0
LINE
  8
0
 62
     0
 10
77.6813
 20
3.01377
 30
0.0
 11
79.4067
 21
3.01377
 31
0.0
  0
LINE
  8
0
 62
     0
 10
79.4067
 20
3.01377
 30
0.0
 11
79.4067
 21
1.8135
 31
0.0
  0
LINE
  8
0
 62
     0
 10
79.4067
 20
1.8135
 30
0.0
 11
82.707
 21
1.8135
 31
0.0
  0
LINE
  8
0
 62
     0
 10
82.707
 20
1.8135
 30
0.0
 11
82.707
 21
3.01377
 31
0.0
  0
LINE
  8
0
 62
     0
 10
82.707
 20
3.01377
 30
0.0
 11
84.431
 21
3.01377
 31
0.0
  0
LINE
  8
0
 62
     0
 10
84.431
 20
3.01377
 30
0.0
 11
84.431
 21
7.48273
 31
0.0
  0
LINE
  8
0
 62
     0
 10
84.431
 20
7.48273
 30
0.0
 11
93.1072
 21
7.48273
 31
0.0
  0
LINE
  8
0
 62
     0
 10
93.1072
 20
7.48273
 30
0.0
 11
93.1072
 21
2.78364
 31
0.0
  0
LINE
  8
0
 62
     0
 10
93.1072
 20
2.78364
 30
0.0
 11
107.107
 21
2.78364
 31
0.0
  0
LINE
  8
0
 62
     0
 10
107.107
 20
2.78364
 30
0.0
 11
107.107
 21
7.48273
 31
0.0
  0
LINE
  8
0
 62
     0
 10
107.107
 20
7.48273
 30
0.0
 11
115.781
 21
7.48273
 31
0.0
  0
LINE
  8
0
 62
     0
 10
115.781
 20
7.48273
 30
0.0
 11
115.781
 21
3.01377
 31
0.0
  0
LINE
  8
0
 62
     0
 10
115.781
 20
3.01377
 30
0.0
 11
117.507
 21
3.01377
 31
0.0
  0
LINE
  8
0
 62
     0
 10
117.507
 20
3.01377
 30
0.0
 11
117.507
 21
1.8135
 31
0.0
  0
LINE
  8
0
 62
     0
 10
117.507
 20
1.8135
 30
0.0
 11
120.807
 21
1.8135
 31
0.0
  0
LINE
  8
0
 62
     0
 10
120.807
 20
1.8135
 30
0.0
 11
120.807
 21
3.01377
 31
0.0
  0
LINE
  8
0
 62
     0
 10
120.807
 20
3.01377
 30
0.0
 11
122.531
 21
3.01377
 31
0.0
  0
LINE
  8
0
 62
     0
 10
122.531
 20
3.01377
 30
0.0
 11
122.531
 21
9.28384
 31
0.0
  0
LINE
  8
0
 62
     0
 10
122.531
 20
9.28384
 30
0.0
 11
123.357
 21
9.28384
 31
0.0
  0
LINE
  8
0
 62
     0
 10
123.357
 20
9.28384
 30
0.0
 11
123.357
 21
12.0826
 31
0.0
  0
LINE
  8
0
 62
     0
 10
123.357
 20
12.0826
 30
0.0
 11
122.531
 21
12.0826
 31
0.0
  0
LINE
  8
0
 62
     0
 10
122.531
 20
12.0826
 30
0.0
 11
122.531
 21
15.3128
 31
0.0
  0
LINE
  8
0
 62
     0
 10
122.531
 20
15.3128
 30
0.0
 11
115.781
 21
15.3128
 31
0.0
  0
LINE
  8
0
 62
     0
 10
115.781
 20
15.3128
 30
0.0
 11
115.781
 21
12.0826
 31
0.0
  0
LINE
  8
0
 62
     0
 10
115.781
 20
12.0826
 30
0.0
 11
107.107
 21
12.0826
 31
0.0
  0
LINE
  8
0
 62
     0
 10
107.107
 20
12.0826
 30
0.0
 11
107.107
 21
16.7831
 31
0.0
  0
LINE
  8
0
 62
     0
 10
107.107
 20
16.7831
 30
0.0
 11
93.1072
 21
16.7831
 31
0.0
  0
LINE
  8
0
 62
     0
 10
416.959
 20
16.7831
 30
0.0
 11
430.957
 21
16.7831
 31
0.0
  0
LINE
  8
0
 62
     0
 10
430.957
 20
16.7831
 30
0.0
 11
430.957
 21
2.78364
 31
0.0
  0
LINE
  8
0
 62
     0
 10
430.957
 20
2.78364
 30
0.0
 11
416.959
 21
2.78364
 31
0.0
  0
LINE
  8
0
 62
     0
 10
416.959
 20
2.78364
 30
0.0
 11
416.959
 21
16.7831
 31
0.0
  0
LINE
  8
0
 62
     0
 10
397.909
 20
16.7831
 30
0.0
 11
411.907
 21
16.7831
 31
0.0
  0
LINE
  8
0
 62
     0
 10
411.907
 20
16.7831
 30
0.0
 11
411.907
 21
2.78364
 31
0.0
  0
LINE
  8
0
 62
     0
 10
411.907
 20
2.78364
 30
0.0
 11
397.909
 21
2.78364
 31
0.0
  0
LINE
  8
0
 62
     0
 10
397.909
 20
2.78364
 30
0.0
 11
397.909
 21
16.7831
 31
0.0
  0
LINE
  8
0
 62
     0
 10
378.859
 20
16.7831
 30
0.0
 11
392.857
 21
16.7831
 31
0.0
  0
LINE
  8
0
 62
     0
 10
392.857
 20
16.7831
 30
0.0
 11
392.857
 21
2.78364
 31
0.0
  0
LINE
  8
0
 62
     0
 10
392.857
 20
2.78364
 30
0.0
 11
378.859
 21
2.78364
 31
0.0
  0
LINE
  8
0
 62
     0
 10
378.859
 20
2.78364
 30
0.0
 11
378.859
 21
16.7831
 31
0.0
  0
LINE
  8
0
 62
     0
 10
359.809
 20
16.7831
 30
0.0
 11
373.807
 21
16.7831
 31
0.0
  0
LINE
  8
0
 62
     0
 10
373.807
 20
16.7831
 30
0.0
 11
373.807
 21
2.78364
 31
0.0
  0
LINE
  8
0
 62
     0
 10
373.807
 20
2.78364
 30
0.0
 11
359.809
 21
2.78364
 31
0.0
  0
LINE
  8
0
 62
     0
 10
359.809
 20
2.78364
 30
0.0
 11
359.809
 21
16.7831
 31
0.0
  0
LINE
  8
0
 62
     0
 10
335.995
 20
16.7831
 30
0.0
 11
349.994
 21
16.7831
 31
0.0
  0
LINE
  8
0
 62
     0
 10
349.994
 20
16.7831
 30
0.0
 11
349.994
 21
2.78364
 31
0.0
  0
LINE
  8
0
 62
     0
 10
349.994
 20
2.78364
 30
0.0
 11
335.995
 21
2.78364
 31
0.0
  0
LINE
  8
0
 62
     0
 10
335.995
 20
2.78364
 30
0.0
 11
335.995
 21
16.7831
 31
0.0
  0
LINE
  8
0
 62
     0
 10
316.945
 20
16.7831
 30
0.0
 11
330.944
 21
16.7831
 31
0.0
  0
LINE
  8
0
 62
     0
 10
330.944
 20
16.7831
 30
0.0
 11
330.944
 21
2.78364
 31
0.0
  0
LINE
  8
0
 62
     0
 10
330.944
 20
2.78364
 30
0.0
 11
316.945
 21
2.78364
 31
0.0
  0
LINE
  8
0
 62
     0
 10
316.945
 20
2.78364
 30
0.0
 11
316.945
 21
16.7831
 31
0.0
  0
LINE
  8
0
 62
     0
 10
297.895
 20
16.7831
 30
0.0
 11
311.894
 21
16.7831
 31
0.0
  0
LINE
  8
0
 62
     0
 10
311.894
 20
16.7831
 30
0.0
 11
311.894
 21
2.78364
 31
0.0
  0
LINE
  8
0
 62
     0
 10
311.894
 20
2.78364
 30
0.0
 11
297.895
 21
2.78364
 31
0.0
  0
LINE
  8
0
 62
     0
 10
297.895
 20
2.78364
 30
0.0
 11
297.895
 21
16.7831
 31
0.0
  0
LINE
  8
0
 62
     0
 10
271.701
 20
16.7831
 30
0.0
 11
285.7
 21
16.7831
 31
0.0
  0
LINE
  8
0
 62
     0
 10
285.7
 20
16.7831
 30
0.0
 11
285.7
 21
2.78364
 31
0.0
  0
LINE
  8
0
 62
     0
 10
285.7
 20
2.78364
 30
0.0
 11
271.701
 21
2.78364
 31
0.0
  0
LINE
  8
0
 62
     0
 10
271.701
 20
2.78364
 30
0.0
 11
271.701
 21
16.7831
 31
0.0
  0
LINE
  8
0
 62
     0
 10
247.887
 20
16.7831
 30
0.0
 11
261.888
 21
16.7831
 31
0.0
  0
LINE
  8
0
 62
     0
 10
261.888
 20
16.7831
 30
0.0
 11
261.888
 21
2.78364
 31
0.0
  0
LINE
  8
0
 62
     0
 10
261.888
 20
2.78364
 30
0.0
 11
247.887
 21
2.78364
 31
0.0
  0
LINE
  8
0
 62
     0
 10
247.887
 20
2.78364
 30
0.0
 11
247.887
 21
16.7831
 31
0.0
  0
LINE
  8
0
 62
     0
 10
224.076
 20
16.7831
 30
0.0
 11
238.075
 21
16.7831
 31
0.0
  0
LINE
  8
0
 62
     0
 10
238.075
 20
16.7831
 30
0.0
 11
238.075
 21
2.78364
 31
0.0
  0
LINE
  8
0
 62
     0
 10
238.075
 20
2.78364
 30
0.0
 11
224.076
 21
2.78364
 31
0.0
  0
LINE
  8
0
 62
     0
 10
224.076
 20
2.78364
 30
0.0
 11
224.076
 21
16.7831
 31
0.0
  0
LINE
  8
0
 62
     0
 10
200.262
 20
16.7831
 30
0.0
 11
214.263
 21
16.7831
 31
0.0
  0
LINE
  8
0
 62
     0
 10
214.263
 20
16.7831
 30
0.0
 11
214.263
 21
2.78364
 31
0.0
  0
LINE
  8
0
 62
     0
 10
214.263
 20
2.78364
 30
0.0
 11
200.262
 21
2.78364
 31
0.0
  0
LINE
  8
0
 62
     0
 10
200.262
 20
2.78364
 30
0.0
 11
200.262
 21
16.7831
 31
0.0
  0
LINE
  8
0
 62
     0
 10
157.401
 20
16.7831
 30
0.0
 11
171.4
 21
16.7831
 31
0.0
  0
LINE
  8
0
 62
     0
 10
171.4
 20
16.7831
 30
0.0
 11
171.4
 21
2.78364
 31
0.0
  0
LINE
  8
0
 62
     0
 10
171.4
 20
2.78364
 30
0.0
 11
157.401
 21
2.78364
 31
0.0
  0
LINE
  8
0
 62
     0
 10
157.401
 20
2.78364
 30
0.0
 11
157.401
 21
16.7831
 31
0.0
  0
LINE
  8
0
 62
     0
 10
52.626
 20
16.7831
 30
0.0
 11
66.6253
 21
16.7831
 31
0.0
  0
LINE
  8
0
 62
     0
 10
66.6253
 20
16.7831
 30
0.0
 11
66.6253
 21
2.78364
 31
0.0
  0
LINE
  8
0
 62
     0
 10
66.6253
 20
2.78364
 30
0.0
 11
52.626
 21
2.78364
 31
0.0
  0
LINE
  8
0
 62
     0
 10
52.626
 20
2.78364
 30
0.0
 11
52.626
 21
16.7831
 31
0.0
  0
LINE
  8
0
 62
     0
 10
28.812
 20
16.7831
 30
0.0
 11
42.8128
 21
16.7831
 31
0.0
  0
LINE
  8
0
 62
     0
 10
42.8128
 20
16.7831
 30
0.0
 11
42.8128
 21
2.78364
 31
0.0
  0
LINE
  8
0
 62
     0
 10
42.8128
 20
2.78364
 30
0.0
 11
28.812
 21
2.78364
 31
0.0
  0
LINE
  8
0
 62
     0
 10
28.812
 20
2.78364
 30
0.0
 11
28.812
 21
16.7831
 31
0.0
  0
LINE
  8
0
 62
     0
 10
5.00091
 20
16.7831
 30
0.0
 11
19.0004
 21
16.7831
 31
0.0
  0
LINE
  8
0
 62
     0
 10
19.0004
 20
16.7831
 30
0.0
 11
19.0004
 21
2.78364
 31
0.0
  0
LINE
  8
0
 62
     0
 10
19.0004
 20
2.78364
 30
0.0
 11
5.00091
 21
2.78364
 31
0.0
  0
LINE
  8
0
 62
     0
 10
5.00091
 20
2.78364
 30
0.0
 11
5.00091
 21
16.7831
 31
0.0
  0
LINE
  8
0
 62
     0
 10
257.412
 20
35.833
 30
0.0
 11
257.412
 21
31.1326
 31
0.0
  0
LINE
  8
0
 62
     0
 10
257.412
 20
31.1326
 30
0.0
 11
255.888
 21
31.1326
 31
0.0
  0
LINE
  8
0
 62
     0
 10
255.888
 20
31.1326
 30
0.0
 11
255.888
 21
34.3628
 31
0.0
  0
LINE
  8
0
 62
     0
 10
255.888
 20
34.3628
 30
0.0
 11
249.137
 21
34.3628
 31
0.0
  0
LINE
  8
0
 62
     0
 10
249.137
 20
34.3628
 30
0.0
 11
249.137
 21
31.1326
 31
0.0
  0
LINE
  8
0
 62
     0
 10
249.137
 20
31.1326
 30
0.0
 11
248.313
 21
31.1326
 31
0.0
  0
LINE
  8
0
 62
     0
 10
248.313
 20
31.1326
 30
0.0
 11
248.313
 21
28.3338
 31
0.0
  0
LINE
  8
0
 62
     0
 10
248.313
 20
28.3338
 30
0.0
 11
249.137
 21
28.3338
 31
0.0
  0
LINE
  8
0
 62
     0
 10
249.137
 20
28.3338
 30
0.0
 11
249.137
 21
22.0638
 31
0.0
  0
LINE
  8
0
 62
     0
 10
249.137
 20
22.0638
 30
0.0
 11
250.862
 21
22.0638
 31
0.0
  0
LINE
  8
0
 62
     0
 10
250.862
 20
22.0638
 30
0.0
 11
250.862
 21
20.8635
 31
0.0
  0
LINE
  8
0
 62
     0
 10
250.862
 20
20.8635
 30
0.0
 11
254.161
 21
20.8635
 31
0.0
  0
LINE
  8
0
 62
     0
 10
254.161
 20
20.8635
 30
0.0
 11
254.161
 21
22.0638
 31
0.0
  0
LINE
  8
0
 62
     0
 10
254.161
 20
22.0638
 30
0.0
 11
255.888
 21
22.0638
 31
0.0
  0
LINE
  8
0
 62
     0
 10
255.888
 20
22.0638
 30
0.0
 11
255.888
 21
26.5327
 31
0.0
  0
LINE
  8
0
 62
     0
 10
255.888
 20
26.5327
 30
0.0
 11
257.412
 21
26.5327
 31
0.0
  0
LINE
  8
0
 62
     0
 10
257.412
 20
26.5327
 30
0.0
 11
257.412
 21
21.8336
 31
0.0
  0
LINE
  8
0
 62
     0
 10
257.412
 20
21.8336
 30
0.0
 11
271.413
 21
21.8336
 31
0.0
  0
LINE
  8
0
 62
     0
 10
271.413
 20
21.8336
 30
0.0
 11
271.413
 21
26.5327
 31
0.0
  0
LINE
  8
0
 62
     0
 10
271.413
 20
26.5327
 30
0.0
 11
272.937
 21
26.5327
 31
0.0
  0
LINE
  8
0
 62
     0
 10
272.937
 20
26.5327
 30
0.0
 11
272.937
 21
22.0638
 31
0.0
  0
LINE
  8
0
 62
     0
 10
272.937
 20
22.0638
 30
0.0
 11
274.662
 21
22.0638
 31
0.0
  0
LINE
  8
0
 62
     0
 10
274.662
 20
22.0638
 30
0.0
 11
274.662
 21
20.8635
 31
0.0
  0
LINE
  8
0
 62
     0
 10
274.662
 20
20.8635
 30
0.0
 11
277.963
 21
20.8635
 31
0.0
  0
LINE
  8
0
 62
     0
 10
277.963
 20
20.8635
 30
0.0
 11
277.963
 21
22.0638
 31
0.0
  0
LINE
  8
0
 62
     0
 10
277.963
 20
22.0638
 30
0.0
 11
279.688
 21
22.0638
 31
0.0
  0
LINE
  8
0
 62
     0
 10
279.688
 20
22.0638
 30
0.0
 11
279.688
 21
28.3338
 31
0.0
  0
LINE
  8
0
 62
     0
 10
279.688
 20
28.3338
 30
0.0
 11
280.512
 21
28.3338
 31
0.0
  0
LINE
  8
0
 62
     0
 10
280.512
 20
28.3338
 30
0.0
 11
280.512
 21
31.1326
 31
0.0
  0
LINE
  8
0
 62
     0
 10
280.512
 20
31.1326
 30
0.0
 11
279.688
 21
31.1326
 31
0.0
  0
LINE
  8
0
 62
     0
 10
279.688
 20
31.1326
 30
0.0
 11
279.688
 21
34.3628
 31
0.0
  0
LINE
  8
0
 62
     0
 10
279.688
 20
34.3628
 30
0.0
 11
272.937
 21
34.3628
 31
0.0
  0
LINE
  8
0
 62
     0
 10
272.937
 20
34.3628
 30
0.0
 11
272.937
 21
31.1326
 31
0.0
  0
LINE
  8
0
 62
     0
 10
272.937
 20
31.1326
 30
0.0
 11
271.413
 21
31.1326
 31
0.0
  0
LINE
  8
0
 62
     0
 10
271.413
 20
31.1326
 30
0.0
 11
271.413
 21
35.833
 31
0.0
  0
LINE
  8
0
 62
     0
 10
271.413
 20
35.833
 30
0.0
 11
257.412
 21
35.833
 31
0.0
  0
LINE
  8
0
 62
     0
 10
14.5259
 20
35.833
 30
0.0
 11
14.5259
 21
31.1326
 31
0.0
  0
LINE
  8
0
 62
     0
 10
14.5259
 20
31.1326
 30
0.0
 11
13.0004
 21
31.1326
 31
0.0
  0
LINE
  8
0
 62
     0
 10
13.0004
 20
31.1326
 30
0.0
 11
13.0004
 21
34.3628
 31
0.0
  0
LINE
  8
0
 62
     0
 10
13.0004
 20
34.3628
 30
0.0
 11
6.2508
 21
34.3628
 31
0.0
  0
LINE
  8
0
 62
     0
 10
6.2508
 20
34.3628
 30
0.0
 11
6.2508
 21
31.1326
 31
0.0
  0
LINE
  8
0
 62
     0
 10
6.2508
 20
31.1326
 30
0.0
 11
5.42533
 21
31.1326
 31
0.0
  0
LINE
  8
0
 62
     0
 10
5.42533
 20
31.1326
 30
0.0
 11
5.42533
 21
28.3338
 31
0.0
  0
LINE
  8
0
 62
     0
 10
5.42533
 20
28.3338
 30
0.0
 11
6.2508
 21
28.3338
 31
0.0
  0
LINE
  8
0
 62
     0
 10
6.2508
 20
28.3338
 30
0.0
 11
6.2508
 21
22.0638
 31
0.0
  0
LINE
  8
0
 62
     0
 10
6.2508
 20
22.0638
 30
0.0
 11
7.97609
 21
22.0638
 31
0.0
  0
LINE
  8
0
 62
     0
 10
7.97609
 20
22.0638
 30
0.0
 11
7.97609
 21
20.8635
 31
0.0
  0
LINE
  8
0
 62
     0
 10
7.97609
 20
20.8635
 30
0.0
 11
11.2751
 21
20.8635
 31
0.0
  0
LINE
  8
0
 62
     0
 10
11.2751
 20
20.8635
 30
0.0
 11
11.2751
 21
22.0638
 31
0.0
  0
LINE
  8
0
 62
     0
 10
11.2751
 20
22.0638
 30
0.0
 11
13.0004
 21
22.0638
 31
0.0
  0
LINE
  8
0
 62
     0
 10
13.0004
 20
22.0638
 30
0.0
 11
13.0004
 21
26.5327
 31
0.0
  0
LINE
  8
0
 62
     0
 10
13.0004
 20
26.5327
 30
0.0
 11
14.5259
 21
26.5327
 31
0.0
  0
LINE
  8
0
 62
     0
 10
14.5259
 20
26.5327
 30
0.0
 11
14.5259
 21
21.8336
 31
0.0
  0
LINE
  8
0
 62
     0
 10
14.5259
 20
21.8336
 30
0.0
 11
28.5254
 21
21.8336
 31
0.0
  0
LINE
  8
0
 62
     0
 10
28.5254
 20
21.8336
 30
0.0
 11
28.5254
 21
26.5327
 31
0.0
  0
LINE
  8
0
 62
     0
 10
28.5254
 20
26.5327
 30
0.0
 11
30.0509
 21
26.5327
 31
0.0
  0
LINE
  8
0
 62
     0
 10
30.0509
 20
26.5327
 30
0.0
 11
30.0509
 21
22.0638
 31
0.0
  0
LINE
  8
0
 62
     0
 10
30.0509
 20
22.0638
 30
0.0
 11
31.7748
 21
22.0638
 31
0.0
  0
LINE
  8
0
 62
     0
 10
31.7748
 20
22.0638
 30
0.0
 11
31.7748
 21
20.8635
 31
0.0
  0
LINE
  8
0
 62
     0
 10
31.7748
 20
20.8635
 30
0.0
 11
35.0752
 21
20.8635
 31
0.0
  0
LINE
  8
0
 62
     0
 10
35.0752
 20
20.8635
 30
0.0
 11
35.0752
 21
22.0638
 31
0.0
  0
LINE
  8
0
 62
     0
 10
35.0752
 20
22.0638
 30
0.0
 11
36.8004
 21
22.0638
 31
0.0
  0
LINE
  8
0
 62
     0
 10
36.8004
 20
22.0638
 30
0.0
 11
36.8004
 21
28.3338
 31
0.0
  0
LINE
  8
0
 62
     0
 10
36.8004
 20
28.3338
 30
0.0
 11
37.6259
 21
28.3338
 31
0.0
  0
LINE
  8
0
 62
     0
 10
37.6259
 20
28.3338
 30
0.0
 11
37.6259
 21
31.1326
 31
0.0
  0
LINE
  8
0
 62
     0
 10
37.6259
 20
31.1326
 30
0.0
 11
36.8004
 21
31.1326
 31
0.0
  0
LINE
  8
0
 62
     0
 10
36.8004
 20
31.1326
 30
0.0
 11
36.8004
 21
34.3628
 31
0.0
  0
LINE
  8
0
 62
     0
 10
36.8004
 20
34.3628
 30
0.0
 11
30.0509
 21
34.3628
 31
0.0
  0
LINE
  8
0
 62
     0
 10
30.0509
 20
34.3628
 30
0.0
 11
30.0509
 21
31.1326
 31
0.0
  0
LINE
  8
0
 62
     0
 10
30.0509
 20
31.1326
 30
0.0
 11
28.5254
 21
31.1326
 31
0.0
  0
LINE
  8
0
 62
     0
 10
28.5254
 20
31.1326
 30
0.0
 11
28.5254
 21
35.833
 31
0.0
  0
LINE
  8
0
 62
     0
 10
28.5254
 20
35.833
 30
0.0
 11
14.5259
 21
35.833
 31
0.0
  0
LINE
  8
0
 62
     0
 10
416.959
 20
35.833
 30
0.0
 11
430.957
 21
35.833
 31
0.0
  0
LINE
  8
0
 62
     0
 10
430.957
 20
35.833
 30
0.0
 11
430.957
 21
21.8336
 31
0.0
  0
LINE
  8
0
 62
     0
 10
430.957
 20
21.8336
 30
0.0
 11
416.959
 21
21.8336
 31
0.0
  0
LINE
  8
0
 62
     0
 10
416.959
 20
21.8336
 30
0.0
 11
416.959
 21
35.833
 31
0.0
  0
LINE
  8
0
 62
     0
 10
397.909
 20
35.833
 30
0.0
 11
411.907
 21
35.833
 31
0.0
  0
LINE
  8
0
 62
     0
 10
411.907
 20
35.833
 30
0.0
 11
411.907
 21
21.8336
 31
0.0
  0
LINE
  8
0
 62
     0
 10
411.907
 20
21.8336
 30
0.0
 11
397.909
 21
21.8336
 31
0.0
  0
LINE
  8
0
 62
     0
 10
397.909
 20
21.8336
 30
0.0
 11
397.909
 21
35.833
 31
0.0
  0
LINE
  8
0
 62
     0
 10
378.859
 20
35.833
 30
0.0
 11
392.857
 21
35.833
 31
0.0
  0
LINE
  8
0
 62
     0
 10
392.857
 20
35.833
 30
0.0
 11
392.857
 21
21.8336
 31
0.0
  0
LINE
  8
0
 62
     0
 10
392.857
 20
21.8336
 30
0.0
 11
378.859
 21
21.8336
 31
0.0
  0
LINE
  8
0
 62
     0
 10
378.859
 20
21.8336
 30
0.0
 11
378.859
 21
35.833
 31
0.0
  0
LINE
  8
0
 62
     0
 10
359.809
 20
35.833
 30
0.0
 11
373.807
 21
35.833
 31
0.0
  0
LINE
  8
0
 62
     0
 10
373.807
 20
35.833
 30
0.0
 11
373.807
 21
21.8336
 31
0.0
  0
LINE
  8
0
 62
     0
 10
373.807
 20
21.8336
 30
0.0
 11
359.809
 21
21.8336
 31
0.0
  0
LINE
  8
0
 62
     0
 10
359.809
 20
21.8336
 30
0.0
 11
359.809
 21
35.833
 31
0.0
  0
LINE
  8
0
 62
     0
 10
316.945
 20
35.833
 30
0.0
 11
330.944
 21
35.833
 31
0.0
  0
LINE
  8
0
 62
     0
 10
330.944
 20
35.833
 30
0.0
 11
330.944
 21
21.8336
 31
0.0
  0
LINE
  8
0
 62
     0
 10
330.944
 20
21.8336
 30
0.0
 11
316.945
 21
21.8336
 31
0.0
  0
LINE
  8
0
 62
     0
 10
316.945
 20
21.8336
 30
0.0
 11
316.945
 21
35.833
 31
0.0
  0
LINE
  8
0
 62
     0
 10
221.695
 20
35.833
 30
0.0
 11
235.694
 21
35.833
 31
0.0
  0
LINE
  8
0
 62
     0
 10
235.694
 20
35.833
 30
0.0
 11
235.694
 21
21.8336
 31
0.0
  0
LINE
  8
0
 62
     0
 10
235.694
 20
21.8336
 30
0.0
 11
221.695
 21
21.8336
 31
0.0
  0
LINE
  8
0
 62
     0
 10
221.695
 20
21.8336
 30
0.0
 11
221.695
 21
35.833
 31
0.0
  0
LINE
  8
0
 62
     0
 10
202.645
 20
35.833
 30
0.0
 11
216.644
 21
35.833
 31
0.0
  0
LINE
  8
0
 62
     0
 10
216.644
 20
35.833
 30
0.0
 11
216.644
 21
21.8336
 31
0.0
  0
LINE
  8
0
 62
     0
 10
216.644
 20
21.8336
 30
0.0
 11
202.645
 21
21.8336
 31
0.0
  0
LINE
  8
0
 62
     0
 10
202.645
 20
21.8336
 30
0.0
 11
202.645
 21
35.833
 31
0.0
  0
LINE
  8
0
 62
     0
 10
183.595
 20
35.833
 30
0.0
 11
197.594
 21
35.833
 31
0.0
  0
LINE
  8
0
 62
     0
 10
197.594
 20
35.833
 30
0.0
 11
197.594
 21
21.8336
 31
0.0
  0
LINE
  8
0
 62
     0
 10
197.594
 20
21.8336
 30
0.0
 11
183.595
 21
21.8336
 31
0.0
  0
LINE
  8
0
 62
     0
 10
183.595
 20
21.8336
 30
0.0
 11
183.595
 21
35.833
 31
0.0
  0
LINE
  8
0
 62
     0
 10
164.545
 20
35.833
 30
0.0
 11
178.544
 21
35.833
 31
0.0
  0
LINE
  8
0
 62
     0
 10
178.544
 20
35.833
 30
0.0
 11
178.544
 21
21.8336
 31
0.0
  0
LINE
  8
0
 62
     0
 10
178.544
 20
21.8336
 30
0.0
 11
164.545
 21
21.8336
 31
0.0
  0
LINE
  8
0
 62
     0
 10
164.545
 20
21.8336
 30
0.0
 11
164.545
 21
35.833
 31
0.0
  0
LINE
  8
0
 62
     0
 10
145.495
 20
35.833
 30
0.0
 11
159.494
 21
35.833
 31
0.0
  0
LINE
  8
0
 62
     0
 10
159.494
 20
35.833
 30
0.0
 11
159.494
 21
21.8336
 31
0.0
  0
LINE
  8
0
 62
     0
 10
159.494
 20
21.8336
 30
0.0
 11
145.495
 21
21.8336
 31
0.0
  0
LINE
  8
0
 62
     0
 10
145.495
 20
21.8336
 30
0.0
 11
145.495
 21
35.833
 31
0.0
  0
LINE
  8
0
 62
     0
 10
126.445
 20
35.833
 30
0.0
 11
140.444
 21
35.833
 31
0.0
  0
LINE
  8
0
 62
     0
 10
140.444
 20
35.833
 30
0.0
 11
140.444
 21
21.8336
 31
0.0
  0
LINE
  8
0
 62
     0
 10
140.444
 20
21.8336
 30
0.0
 11
126.445
 21
21.8336
 31
0.0
  0
LINE
  8
0
 62
     0
 10
126.445
 20
21.8336
 30
0.0
 11
126.445
 21
35.833
 31
0.0
  0
LINE
  8
0
 62
     0
 10
102.632
 20
35.833
 30
0.0
 11
116.632
 21
35.833
 31
0.0
  0
LINE
  8
0
 62
     0
 10
116.632
 20
35.833
 30
0.0
 11
116.632
 21
21.8336
 31
0.0
  0
LINE
  8
0
 62
     0
 10
116.632
 20
21.8336
 30
0.0
 11
102.632
 21
21.8336
 31
0.0
  0
LINE
  8
0
 62
     0
 10
102.632
 20
21.8336
 30
0.0
 11
102.632
 21
35.833
 31
0.0
  0
LINE
  8
0
 62
     0
 10
83.5822
 20
35.833
 30
0.0
 11
97.5815
 21
35.833
 31
0.0
  0
LINE
  8
0
 62
     0
 10
97.5815
 20
35.833
 30
0.0
 11
97.5815
 21
21.8336
 31
0.0
  0
LINE
  8
0
 62
     0
 10
97.5815
 20
21.8336
 30
0.0
 11
83.5822
 21
21.8336
 31
0.0
  0
LINE
  8
0
 62
     0
 10
83.5822
 20
21.8336
 30
0.0
 11
83.5822
 21
35.833
 31
0.0
  0
LINE
  8
0
 62
     0
 10
64.5322
 20
35.833
 30
0.0
 11
78.5315
 21
35.833
 31
0.0
  0
LINE
  8
0
 62
     0
 10
78.5315
 20
35.833
 30
0.0
 11
78.5315
 21
21.8336
 31
0.0
  0
LINE
  8
0
 62
     0
 10
78.5315
 20
21.8336
 30
0.0
 11
64.5322
 21
21.8336
 31
0.0
  0
LINE
  8
0
 62
     0
 10
64.5322
 20
21.8336
 30
0.0
 11
64.5322
 21
35.833
 31
0.0
  0
LINE
  8
0
 62
     0
 10
45.4822
 20
35.833
 30
0.0
 11
59.4815
 21
35.833
 31
0.0
  0
LINE
  8
0
 62
     0
 10
59.4815
 20
35.833
 30
0.0
 11
59.4815
 21
21.8336
 31
0.0
  0
LINE
  8
0
 62
     0
 10
59.4815
 20
21.8336
 30
0.0
 11
45.4822
 21
21.8336
 31
0.0
  0
LINE
  8
0
 62
     0
 10
45.4822
 20
21.8336
 30
0.0
 11
45.4822
 21
35.833
 31
0.0
  0
LINE
  8
0
 62
     0
 10
262.176
 20
54.8831
 30
0.0
 11
262.176
 21
50.1826
 31
0.0
  0
LINE
  8
0
 62
     0
 10
262.176
 20
50.1826
 30
0.0
 11
260.651
 21
50.1826
 31
0.0
  0
LINE
  8
0
 62
     0
 10
260.651
 20
50.1826
 30
0.0
 11
260.651
 21
53.4127
 31
0.0
  0
LINE
  8
0
 62
     0
 10
260.651
 20
53.4127
 30
0.0
 11
253.899
 21
53.4127
 31
0.0
  0
LINE
  8
0
 62
     0
 10
253.899
 20
53.4127
 30
0.0
 11
253.899
 21
50.1826
 31
0.0
  0
LINE
  8
0
 62
     0
 10
253.899
 20
50.1826
 30
0.0
 11
253.075
 21
50.1826
 31
0.0
  0
LINE
  8
0
 62
     0
 10
253.075
 20
50.1826
 30
0.0
 11
253.075
 21
47.3837
 31
0.0
  0
LINE
  8
0
 62
     0
 10
253.075
 20
47.3837
 30
0.0
 11
253.899
 21
47.3837
 31
0.0
  0
LINE
  8
0
 62
     0
 10
253.899
 20
47.3837
 30
0.0
 11
253.899
 21
41.1138
 31
0.0
  0
LINE
  8
0
 62
     0
 10
253.899
 20
41.1138
 30
0.0
 11
255.626
 21
41.1138
 31
0.0
  0
LINE
  8
0
 62
     0
 10
255.626
 20
41.1138
 30
0.0
 11
255.626
 21
39.9136
 31
0.0
  0
LINE
  8
0
 62
     0
 10
255.626
 20
39.9136
 30
0.0
 11
258.925
 21
39.9136
 31
0.0
  0
LINE
  8
0
 62
     0
 10
258.925
 20
39.9136
 30
0.0
 11
258.925
 21
41.1138
 31
0.0
  0
LINE
  8
0
 62
     0
 10
258.925
 20
41.1138
 30
0.0
 11
260.651
 21
41.1138
 31
0.0
  0
LINE
  8
0
 62
     0
 10
260.651
 20
41.1138
 30
0.0
 11
260.651
 21
45.5828
 31
0.0
  0
LINE
  8
0
 62
     0
 10
260.651
 20
45.5828
 30
0.0
 11
262.176
 21
45.5828
 31
0.0
  0
LINE
  8
0
 62
     0
 10
262.176
 20
45.5828
 30
0.0
 11
262.176
 21
40.8838
 31
0.0
  0
LINE
  8
0
 62
     0
 10
262.176
 20
40.8838
 30
0.0
 11
276.175
 21
40.8838
 31
0.0
  0
LINE
  8
0
 62
     0
 10
276.175
 20
40.8838
 30
0.0
 11
276.175
 21
45.5828
 31
0.0
  0
LINE
  8
0
 62
     0
 10
276.175
 20
45.5828
 30
0.0
 11
277.701
 21
45.5828
 31
0.0
  0
LINE
  8
0
 62
     0
 10
277.701
 20
45.5828
 30
0.0
 11
277.701
 21
41.1138
 31
0.0
  0
LINE
  8
0
 62
     0
 10
277.701
 20
41.1138
 30
0.0
 11
279.426
 21
41.1138
 31
0.0
  0
LINE
  8
0
 62
     0
 10
279.426
 20
41.1138
 30
0.0
 11
279.426
 21
39.9136
 31
0.0
  0
LINE
  8
0
 62
     0
 10
279.426
 20
39.9136
 30
0.0
 11
282.725
 21
39.9136
 31
0.0
  0
LINE
  8
0
 62
     0
 10
282.725
 20
39.9136
 30
0.0
 11
282.725
 21
41.1138
 31
0.0
  0
LINE
  8
0
 62
     0
 10
282.725
 20
41.1138
 30
0.0
 11
284.45
 21
41.1138
 31
0.0
  0
LINE
  8
0
 62
     0
 10
284.45
 20
41.1138
 30
0.0
 11
284.45
 21
47.3837
 31
0.0
  0
LINE
  8
0
 62
     0
 10
284.45
 20
47.3837
 30
0.0
 11
285.276
 21
47.3837
 31
0.0
  0
LINE
  8
0
 62
     0
 10
285.276
 20
47.3837
 30
0.0
 11
285.276
 21
50.1826
 31
0.0
  0
LINE
  8
0
 62
     0
 10
285.276
 20
50.1826
 30
0.0
 11
284.45
 21
50.1826
 31
0.0
  0
LINE
  8
0
 62
     0
 10
284.45
 20
50.1826
 30
0.0
 11
284.45
 21
53.4127
 31
0.0
  0
LINE
  8
0
 62
     0
 10
284.45
 20
53.4127
 30
0.0
 11
277.701
 21
53.4127
 31
0.0
  0
LINE
  8
0
 62
     0
 10
277.701
 20
53.4127
 30
0.0
 11
277.701
 21
50.1826
 31
0.0
  0
LINE
  8
0
 62
     0
 10
277.701
 20
50.1826
 30
0.0
 11
276.175
 21
50.1826
 31
0.0
  0
LINE
  8
0
 62
     0
 10
276.175
 20
50.1826
 30
0.0
 11
276.175
 21
54.8831
 31
0.0
  0
LINE
  8
0
 62
     0
 10
276.175
 20
54.8831
 30
0.0
 11
262.176
 21
54.8831
 31
0.0
  0
LINE
  8
0
 62
     0
 10
416.959
 20
54.8831
 30
0.0
 11
430.957
 21
54.8831
 31
0.0
  0
LINE
  8
0
 62
     0
 10
430.957
 20
54.8831
 30
0.0
 11
430.957
 21
40.8838
 31
0.0
  0
LINE
  8
0
 62
     0
 10
430.957
 20
40.8838
 30
0.0
 11
416.959
 21
40.8838
 31
0.0
  0
LINE
  8
0
 62
     0
 10
416.959
 20
40.8838
 30
0.0
 11
416.959
 21
54.8831
 31
0.0
  0
LINE
  8
0
 62
     0
 10
397.909
 20
54.8831
 30
0.0
 11
411.907
 21
54.8831
 31
0.0
  0
LINE
  8
0
 62
     0
 10
411.907
 20
54.8831
 30
0.0
 11
411.907
 21
40.8838
 31
0.0
  0
LINE
  8
0
 62
     0
 10
411.907
 20
40.8838
 30
0.0
 11
397.909
 21
40.8838
 31
0.0
  0
LINE
  8
0
 62
     0
 10
397.909
 20
40.8838
 30
0.0
 11
397.909
 21
54.8831
 31
0.0
  0
LINE
  8
0
 62
     0
 10
378.859
 20
54.8831
 30
0.0
 11
392.857
 21
54.8831
 31
0.0
  0
LINE
  8
0
 62
     0
 10
392.857
 20
54.8831
 30
0.0
 11
392.857
 21
40.8838
 31
0.0
  0
LINE
  8
0
 62
     0
 10
392.857
 20
40.8838
 30
0.0
 11
378.859
 21
40.8838
 31
0.0
  0
LINE
  8
0
 62
     0
 10
378.859
 20
40.8838
 30
0.0
 11
378.859
 21
54.8831
 31
0.0
  0
LINE
  8
0
 62
     0
 10
359.809
 20
54.8831
 30
0.0
 11
373.807
 21
54.8831
 31
0.0
  0
LINE
  8
0
 62
     0
 10
373.807
 20
54.8831
 30
0.0
 11
373.807
 21
40.8838
 31
0.0
  0
LINE
  8
0
 62
     0
 10
373.807
 20
40.8838
 30
0.0
 11
359.809
 21
40.8838
 31
0.0
  0
LINE
  8
0
 62
     0
 10
359.809
 20
40.8838
 30
0.0
 11
359.809
 21
54.8831
 31
0.0
  0
LINE
  8
0
 62
     0
 10
335.995
 20
54.8831
 30
0.0
 11
349.994
 21
54.8831
 31
0.0
  0
LINE
  8
0
 62
     0
 10
349.994
 20
54.8831
 30
0.0
 11
349.994
 21
40.8838
 31
0.0
  0
LINE
  8
0
 62
     0
 10
349.994
 20
40.8838
 30
0.0
 11
335.995
 21
40.8838
 31
0.0
  0
LINE
  8
0
 62
     0
 10
335.995
 20
40.8838
 30
0.0
 11
335.995
 21
54.8831
 31
0.0
  0
LINE
  8
0
 62
     0
 10
316.945
 20
54.8831
 30
0.0
 11
330.944
 21
54.8831
 31
0.0
  0
LINE
  8
0
 62
     0
 10
330.944
 20
54.8831
 30
0.0
 11
330.944
 21
40.8838
 31
0.0
  0
LINE
  8
0
 62
     0
 10
330.944
 20
40.8838
 30
0.0
 11
316.945
 21
40.8838
 31
0.0
  0
LINE
  8
0
 62
     0
 10
316.945
 20
40.8838
 30
0.0
 11
316.945
 21
54.8831
 31
0.0
  0
LINE
  8
0
 62
     0
 10
297.895
 20
54.8831
 30
0.0
 11
311.894
 21
54.8831
 31
0.0
  0
LINE
  8
0
 62
     0
 10
311.894
 20
54.8831
 30
0.0
 11
311.894
 21
40.8838
 31
0.0
  0
LINE
  8
0
 62
     0
 10
311.894
 20
40.8838
 30
0.0
 11
297.895
 21
40.8838
 31
0.0
  0
LINE
  8
0
 62
     0
 10
297.895
 20
40.8838
 30
0.0
 11
297.895
 21
54.8831
 31
0.0
  0
LINE
  8
0
 62
     0
 10
231.22
 20
54.8831
 30
0.0
 11
245.219
 21
54.8831
 31
0.0
  0
LINE
  8
0
 62
     0
 10
245.219
 20
54.8831
 30
0.0
 11
245.219
 21
40.8838
 31
0.0
  0
LINE
  8
0
 62
     0
 10
245.219
 20
40.8838
 30
0.0
 11
231.22
 21
40.8838
 31
0.0
  0
LINE
  8
0
 62
     0
 10
231.22
 20
40.8838
 30
0.0
 11
231.22
 21
54.8831
 31
0.0
  0
LINE
  8
0
 62
     0
 10
212.17
 20
54.8831
 30
0.0
 11
226.169
 21
54.8831
 31
0.0
  0
LINE
  8
0
 62
     0
 10
226.169
 20
54.8831
 30
0.0
 11
226.169
 21
40.8838
 31
0.0
  0
LINE
  8
0
 62
     0
 10
226.169
 20
40.8838
 30
0.0
 11
212.17
 21
40.8838
 31
0.0
  0
LINE
  8
0
 62
     0
 10
212.17
 20
40.8838
 30
0.0
 11
212.17
 21
54.8831
 31
0.0
  0
LINE
  8
0
 62
     0
 10
193.12
 20
54.8831
 30
0.0
 11
207.119
 21
54.8831
 31
0.0
  0
LINE
  8
0
 62
     0
 10
207.119
 20
54.8831
 30
0.0
 11
207.119
 21
40.8838
 31
0.0
  0
LINE
  8
0
 62
     0
 10
207.119
 20
40.8838
 30
0.0
 11
193.12
 21
40.8838
 31
0.0
  0
LINE
  8
0
 62
     0
 10
193.12
 20
40.8838
 30
0.0
 11
193.12
 21
54.8831
 31
0.0
  0
LINE
  8
0
 62
     0
 10
174.07
 20
54.8831
 30
0.0
 11
188.069
 21
54.8831
 31
0.0
  0
LINE
  8
0
 62
     0
 10
188.069
 20
54.8831
 30
0.0
 11
188.069
 21
40.8838
 31
0.0
  0
LINE
  8
0
 62
     0
 10
188.069
 20
40.8838
 30
0.0
 11
174.07
 21
40.8838
 31
0.0
  0
LINE
  8
0
 62
     0
 10
174.07
 20
40.8838
 30
0.0
 11
174.07
 21
54.8831
 31
0.0
  0
LINE
  8
0
 62
     0
 10
155.02
 20
54.8831
 30
0.0
 11
169.019
 21
54.8831
 31
0.0
  0
LINE
  8
0
 62
     0
 10
169.019
 20
54.8831
 30
0.0
 11
169.019
 21
40.8838
 31
0.0
  0
LINE
  8
0
 62
     0
 10
169.019
 20
40.8838
 30
0.0
 11
155.02
 21
40.8838
 31
0.0
  0
LINE
  8
0
 62
     0
 10
155.02
 20
40.8838
 30
0.0
 11
155.02
 21
54.8831
 31
0.0
  0
LINE
  8
0
 62
     0
 10
135.97
 20
54.8831
 30
0.0
 11
149.969
 21
54.8831
 31
0.0
  0
LINE
  8
0
 62
     0
 10
149.969
 20
54.8831
 30
0.0
 11
149.969
 21
40.8838
 31
0.0
  0
LINE
  8
0
 62
     0
 10
149.969
 20
40.8838
 30
0.0
 11
135.97
 21
40.8838
 31
0.0
  0
LINE
  8
0
 62
     0
 10
135.97
 20
40.8838
 30
0.0
 11
135.97
 21
54.8831
 31
0.0
  0
LINE
  8
0
 62
     0
 10
112.157
 20
54.8831
 30
0.0
 11
126.157
 21
54.8831
 31
0.0
  0
LINE
  8
0
 62
     0
 10
126.157
 20
54.8831
 30
0.0
 11
126.157
 21
40.8838
 31
0.0
  0
LINE
  8
0
 62
     0
 10
126.157
 20
40.8838
 30
0.0
 11
112.157
 21
40.8838
 31
0.0
  0
LINE
  8
0
 62
     0
 10
112.157
 20
40.8838
 30
0.0
 11
112.157
 21
54.8831
 31
0.0
  0
LINE
  8
0
 62
     0
 10
93.1072
 20
54.8831
 30
0.0
 11
107.107
 21
54.8831
 31
0.0
  0
LINE
  8
0
 62
     0
 10
107.107
 20
54.8831
 30
0.0
 11
107.107
 21
40.8838
 31
0.0
  0
LINE
  8
0
 62
     0
 10
107.107
 20
40.8838
 30
0.0
 11
93.1072
 21
40.8838
 31
0.0
  0
LINE
  8
0
 62
     0
 10
93.1072
 20
40.8838
 30
0.0
 11
93.1072
 21
54.8831
 31
0.0
  0
LINE
  8
0
 62
     0
 10
74.0572
 20
54.8831
 30
0.0
 11
88.0565
 21
54.8831
 31
0.0
  0
LINE
  8
0
 62
     0
 10
88.0565
 20
54.8831
 30
0.0
 11
88.0565
 21
40.8838
 31
0.0
  0
LINE
  8
0
 62
     0
 10
88.0565
 20
40.8838
 30
0.0
 11
74.0572
 21
40.8838
 31
0.0
  0
LINE
  8
0
 62
     0
 10
74.0572
 20
40.8838
 30
0.0
 11
74.0572
 21
54.8831
 31
0.0
  0
LINE
  8
0
 62
     0
 10
55.0072
 20
54.8831
 30
0.0
 11
69.0065
 21
54.8831
 31
0.0
  0
LINE
  8
0
 62
     0
 10
69.0065
 20
54.8831
 30
0.0
 11
69.0065
 21
40.8838
 31
0.0
  0
LINE
  8
0
 62
     0
 10
69.0065
 20
40.8838
 30
0.0
 11
55.0072
 21
40.8838
 31
0.0
  0
LINE
  8
0
 62
     0
 10
55.0072
 20
40.8838
 30
0.0
 11
55.0072
 21
54.8831
 31
0.0
  0
LINE
  8
0
 62
     0
 10
35.9572
 20
54.8831
 30
0.0
 11
49.9565
 21
54.8831
 31
0.0
  0
LINE
  8
0
 62
     0
 10
49.9565
 20
54.8831
 30
0.0
 11
49.9565
 21
40.8838
 31
0.0
  0
LINE
  8
0
 62
     0
 10
49.9565
 20
40.8838
 30
0.0
 11
35.9572
 21
40.8838
 31
0.0
  0
LINE
  8
0
 62
     0
 10
35.9572
 20
40.8838
 30
0.0
 11
35.9572
 21
54.8831
 31
0.0
  0
LINE
  8
0
 62
     0
 10
9.76203
 20
54.8831
 30
0.0
 11
23.7629
 21
54.8831
 31
0.0
  0
LINE
  8
0
 62
     0
 10
23.7629
 20
54.8831
 30
0.0
 11
23.7629
 21
40.8838
 31
0.0
  0
LINE
  8
0
 62
     0
 10
23.7629
 20
40.8838
 30
0.0
 11
9.76203
 21
40.8838
 31
0.0
  0
LINE
  8
0
 62
     0
 10
9.76203
 20
40.8838
 30
0.0
 11
9.76203
 21
54.8831
 31
0.0
  0
LINE
  8
0
 62
     0
 10
416.959
 20
73.9331
 30
0.0
 11
430.957
 21
73.9331
 31
0.0
  0
LINE
  8
0
 62
     0
 10
430.957
 20
73.9331
 30
0.0
 11
430.957
 21
59.9338
 31
0.0
  0
LINE
  8
0
 62
     0
 10
430.957
 20
59.9338
 30
0.0
 11
416.959
 21
59.9338
 31
0.0
  0
LINE
  8
0
 62
     0
 10
416.959
 20
59.9338
 30
0.0
 11
416.959
 21
73.9331
 31
0.0
  0
LINE
  8
0
 62
     0
 10
397.909
 20
73.9331
 30
0.0
 11
411.907
 21
73.9331
 31
0.0
  0
LINE
  8
0
 62
     0
 10
411.907
 20
73.9331
 30
0.0
 11
411.907
 21
59.9338
 31
0.0
  0
LINE
  8
0
 62
     0
 10
411.907
 20
59.9338
 30
0.0
 11
397.909
 21
59.9338
 31
0.0
  0
LINE
  8
0
 62
     0
 10
397.909
 20
59.9338
 30
0.0
 11
397.909
 21
73.9331
 31
0.0
  0
LINE
  8
0
 62
     0
 10
378.859
 20
73.9331
 30
0.0
 11
392.857
 21
73.9331
 31
0.0
  0
LINE
  8
0
 62
     0
 10
392.857
 20
73.9331
 30
0.0
 11
392.857
 21
59.9338
 31
0.0
  0
LINE
  8
0
 62
     0
 10
392.857
 20
59.9338
 30
0.0
 11
378.859
 21
59.9338
 31
0.0
  0
LINE
  8
0
 62
     0
 10
378.859
 20
59.9338
 30
0.0
 11
378.859
 21
73.9331
 31
0.0
  0
LINE
  8
0
 62
     0
 10
359.809
 20
73.9331
 30
0.0
 11
373.807
 21
73.9331
 31
0.0
  0
LINE
  8
0
 62
     0
 10
373.807
 20
73.9331
 30
0.0
 11
373.807
 21
59.9338
 31
0.0
  0
LINE
  8
0
 62
     0
 10
373.807
 20
59.9338
 30
0.0
 11
359.809
 21
59.9338
 31
0.0
  0
LINE
  8
0
 62
     0
 10
359.809
 20
59.9338
 30
0.0
 11
359.809
 21
73.9331
 31
0.0
  0
LINE
  8
0
 62
     0
 10
335.995
 20
73.9331
 30
0.0
 11
349.994
 21
73.9331
 31
0.0
  0
LINE
  8
0
 62
     0
 10
349.994
 20
73.9331
 30
0.0
 11
349.994
 21
59.9338
 31
0.0
  0
LINE
  8
0
 62
     0
 10
349.994
 20
59.9338
 30
0.0
 11
335.995
 21
59.9338
 31
0.0
  0
LINE
  8
0
 62
     0
 10
335.995
 20
59.9338
 30
0.0
 11
335.995
 21
73.9331
 31
0.0
  0
LINE
  8
0
 62
     0
 10
316.945
 20
73.9331
 30
0.0
 11
330.944
 21
73.9331
 31
0.0
  0
LINE
  8
0
 62
     0
 10
330.944
 20
73.9331
 30
0.0
 11
330.944
 21
59.9338
 31
0.0
  0
LINE
  8
0
 62
     0
 10
330.944
 20
59.9338
 30
0.0
 11
316.945
 21
59.9338
 31
0.0
  0
LINE
  8
0
 62
     0
 10
316.945
 20
59.9338
 30
0.0
 11
316.945
 21
73.9331
 31
0.0
  0
LINE
  8
0
 62
     0
 10
297.895
 20
73.9331
 30
0.0
 11
311.894
 21
73.9331
 31
0.0
  0
LINE
  8
0
 62
     0
 10
311.894
 20
73.9331
 30
0.0
 11
311.894
 21
59.9338
 31
0.0
  0
LINE
  8
0
 62
     0
 10
311.894
 20
59.9338
 30
0.0
 11
297.895
 21
59.9338
 31
0.0
  0
LINE
  8
0
 62
     0
 10
297.895
 20
59.9338
 30
0.0
 11
297.895
 21
73.9331
 31
0.0
  0
LINE
  8
0
 62
     0
 10
269.32
 20
73.9331
 30
0.0
 11
283.319
 21
73.9331
 31
0.0
  0
LINE
  8
0
 62
     0
 10
283.319
 20
73.9331
 30
0.0
 11
283.319
 21
59.9338
 31
0.0
  0
LINE
  8
0
 62
     0
 10
283.319
 20
59.9338
 30
0.0
 11
269.32
 21
59.9338
 31
0.0
  0
LINE
  8
0
 62
     0
 10
269.32
 20
59.9338
 30
0.0
 11
269.32
 21
73.9331
 31
0.0
  0
LINE
  8
0
 62
     0
 10
245.507
 20
73.9331
 30
0.0
 11
259.507
 21
73.9331
 31
0.0
  0
LINE
  8
0
 62
     0
 10
259.507
 20
73.9331
 30
0.0
 11
259.507
 21
59.9338
 31
0.0
  0
LINE
  8
0
 62
     0
 10
259.507
 20
59.9338
 30
0.0
 11
245.507
 21
59.9338
 31
0.0
  0
LINE
  8
0
 62
     0
 10
245.507
 20
59.9338
 30
0.0
 11
245.507
 21
73.9331
 31
0.0
  0
LINE
  8
0
 62
     0
 10
226.457
 20
73.9331
 30
0.0
 11
240.457
 21
73.9331
 31
0.0
  0
LINE
  8
0
 62
     0
 10
240.457
 20
73.9331
 30
0.0
 11
240.457
 21
59.9338
 31
0.0
  0
LINE
  8
0
 62
     0
 10
240.457
 20
59.9338
 30
0.0
 11
226.457
 21
59.9338
 31
0.0
  0
LINE
  8
0
 62
     0
 10
226.457
 20
59.9338
 30
0.0
 11
226.457
 21
73.9331
 31
0.0
  0
LINE
  8
0
 62
     0
 10
207.407
 20
73.9331
 30
0.0
 11
221.407
 21
73.9331
 31
0.0
  0
LINE
  8
0
 62
     0
 10
221.407
 20
73.9331
 30
0.0
 11
221.407
 21
59.9338
 31
0.0
  0
LINE
  8
0
 62
     0
 10
221.407
 20
59.9338
 30
0.0
 11
207.407
 21
59.9338
 31
0.0
  0
LINE
  8
0
 62
     0
 10
207.407
 20
59.9338
 30
0.0
 11
207.407
 21
73.9331
 31
0.0
  0
LINE
  8
0
 62
     0
 10
188.357
 20
73.9331
 30
0.0
 11
202.357
 21
73.9331
 31
0.0
  0
LINE
  8
0
 62
     0
 10
202.357
 20
73.9331
 30
0.0
 11
202.357
 21
59.9338
 31
0.0
  0
LINE
  8
0
 62
     0
 10
202.357
 20
59.9338
 30
0.0
 11
188.357
 21
59.9338
 31
0.0
  0
LINE
  8
0
 62
     0
 10
188.357
 20
59.9338
 30
0.0
 11
188.357
 21
73.9331
 31
0.0
  0
LINE
  8
0
 62
     0
 10
169.307
 20
73.9331
 30
0.0
 11
183.307
 21
73.9331
 31
0.0
  0
LINE
  8
0
 62
     0
 10
183.307
 20
73.9331
 30
0.0
 11
183.307
 21
59.9338
 31
0.0
  0
LINE
  8
0
 62
     0
 10
183.307
 20
59.9338
 30
0.0
 11
169.307
 21
59.9338
 31
0.0
  0
LINE
  8
0
 62
     0
 10
169.307
 20
59.9338
 30
0.0
 11
169.307
 21
73.9331
 31
0.0
  0
LINE
  8
0
 62
     0
 10
150.257
 20
73.9331
 30
0.0
 11
164.257
 21
73.9331
 31
0.0
  0
LINE
  8
0
 62
     0
 10
164.257
 20
73.9331
 30
0.0
 11
164.257
 21
59.9338
 31
0.0
  0
LINE
  8
0
 62
     0
 10
164.257
 20
59.9338
 30
0.0
 11
150.257
 21
59.9338
 31
0.0
  0
LINE
  8
0
 62
     0
 10
150.257
 20
59.9338
 30
0.0
 11
150.257
 21
73.9331
 31
0.0
  0
LINE
  8
0
 62
     0
 10
131.207
 20
73.9331
 30
0.0
 11
145.207
 21
73.9331
 31
0.0
  0
LINE
  8
0
 62
     0
 10
145.207
 20
73.9331
 30
0.0
 11
145.207
 21
59.9338
 31
0.0
  0
LINE
  8
0
 62
     0
 10
145.207
 20
59.9338
 30
0.0
 11
131.207
 21
59.9338
 31
0.0
  0
LINE
  8
0
 62
     0
 10
131.207
 20
59.9338
 30
0.0
 11
131.207
 21
73.9331
 31
0.0
  0
LINE
  8
0
 62
     0
 10
107.395
 20
73.9331
 30
0.0
 11
121.394
 21
73.9331
 31
0.0
  0
LINE
  8
0
 62
     0
 10
121.394
 20
73.9331
 30
0.0
 11
121.394
 21
59.9338
 31
0.0
  0
LINE
  8
0
 62
     0
 10
121.394
 20
59.9338
 30
0.0
 11
107.395
 21
59.9338
 31
0.0
  0
LINE
  8
0
 62
     0
 10
107.395
 20
59.9338
 30
0.0
 11
107.395
 21
73.9331
 31
0.0
  0
LINE
  8
0
 62
     0
 10
88.3447
 20
73.9331
 30
0.0
 11
102.344
 21
73.9331
 31
0.0
  0
LINE
  8
0
 62
     0
 10
102.344
 20
73.9331
 30
0.0
 11
102.344
 21
59.9338
 31
0.0
  0
LINE
  8
0
 62
     0
 10
102.344
 20
59.9338
 30
0.0
 11
88.3447
 21
59.9338
 31
0.0
  0
LINE
  8
0
 62
     0
 10
88.3447
 20
59.9338
 30
0.0
 11
88.3447
 21
73.9331
 31
0.0
  0
LINE
  8
0
 62
     0
 10
69.2947
 20
73.9331
 30
0.0
 11
83.294
 21
73.9331
 31
0.0
  0
LINE
  8
0
 62
     0
 10
83.294
 20
73.9331
 30
0.0
 11
83.294
 21
59.9338
 31
0.0
  0
LINE
  8
0
 62
     0
 10
83.294
 20
59.9338
 30
0.0
 11
69.2947
 21
59.9338
 31
0.0
  0
LINE
  8
0
 62
     0
 10
69.2947
 20
59.9338
 30
0.0
 11
69.2947
 21
73.9331
 31
0.0
  0
LINE
  8
0
 62
     0
 10
50.2447
 20
73.9331
 30
0.0
 11
64.244
 21
73.9331
 31
0.0
  0
LINE
  8
0
 62
     0
 10
64.244
 20
73.9331
 30
0.0
 11
64.244
 21
59.9338
 31
0.0
  0
LINE
  8
0
 62
     0
 10
64.244
 20
59.9338
 30
0.0
 11
50.2447
 21
59.9338
 31
0.0
  0
LINE
  8
0
 62
     0
 10
50.2447
 20
59.9338
 30
0.0
 11
50.2447
 21
73.9331
 31
0.0
  0
LINE
  8
0
 62
     0
 10
31.1947
 20
73.9331
 30
0.0
 11
45.194
 21
73.9331
 31
0.0
  0
LINE
  8
0
 62
     0
 10
45.194
 20
73.9331
 30
0.0
 11
45.194
 21
59.9338
 31
0.0
  0
LINE
  8
0
 62
     0
 10
45.194
 20
59.9338
 30
0.0
 11
31.1947
 21
59.9338
 31
0.0
  0
LINE
  8
0
 62
     0
 10
31.1947
 20
59.9338
 30
0.0
 11
31.1947
 21
73.9331
 31
0.0
  0
LINE
  8
0
 62
     0
 10
7.38216
 20
73.9331
 30
0.0
 11
21.3817
 21
73.9331
 31
0.0
  0
LINE
  8
0
 62
     0
 10
21.3817
 20
73.9331
 30
0.0
 11
21.3817
 21
59.9338
 31
0.0
  0
LINE
  8
0
 62
     0
 10
21.3817
 20
59.9338
 30
0.0
 11
7.38216
 21
59.9338
 31
0.0
  0
LINE
  8
0
 62
     0
 10
7.38216
 20
59.9338
 30
0.0
 11
7.38216
 21
73.9331
 31
0.0
  0
LINE
  8
0
 62
     0
 10
264.557
 20
92.9831
 30
0.0
 11
264.557
 21
88.2826
 31
0.0
  0
LINE
  8
0
 62
     0
 10
264.557
 20
88.2826
 30
0.0
 11
263.032
 21
88.2826
 31
0.0
  0
LINE
  8
0
 62
     0
 10
263.032
 20
88.2826
 30
0.0
 11
263.032
 21
91.5127
 31
0.0
  0
LINE
  8
0
 62
     0
 10
263.032
 20
91.5127
 30
0.0
 11
256.282
 21
91.5127
 31
0.0
  0
LINE
  8
0
 62
     0
 10
256.282
 20
91.5127
 30
0.0
 11
256.282
 21
88.2826
 31
0.0
  0
LINE
  8
0
 62
     0
 10
256.282
 20
88.2826
 30
0.0
 11
255.457
 21
88.2826
 31
0.0
  0
LINE
  8
0
 62
     0
 10
255.457
 20
88.2826
 30
0.0
 11
255.457
 21
85.4837
 31
0.0
  0
LINE
  8
0
 62
     0
 10
255.457
 20
85.4837
 30
0.0
 11
256.282
 21
85.4837
 31
0.0
  0
LINE
  8
0
 62
     0
 10
256.282
 20
85.4837
 30
0.0
 11
256.282
 21
79.2138
 31
0.0
  0
LINE
  8
0
 62
     0
 10
256.282
 20
79.2138
 30
0.0
 11
258.006
 21
79.2138
 31
0.0
  0
LINE
  8
0
 62
     0
 10
258.006
 20
79.2138
 30
0.0
 11
258.006
 21
78.0136
 31
0.0
  0
LINE
  8
0
 62
     0
 10
258.006
 20
78.0136
 30
0.0
 11
261.306
 21
78.0136
 31
0.0
  0
LINE
  8
0
 62
     0
 10
261.306
 20
78.0136
 30
0.0
 11
261.306
 21
79.2138
 31
0.0
  0
LINE
  8
0
 62
     0
 10
261.306
 20
79.2138
 30
0.0
 11
263.032
 21
79.2138
 31
0.0
  0
LINE
  8
0
 62
     0
 10
263.032
 20
79.2138
 30
0.0
 11
263.032
 21
83.6828
 31
0.0
  0
LINE
  8
0
 62
     0
 10
263.032
 20
83.6828
 30
0.0
 11
264.557
 21
83.6828
 31
0.0
  0
LINE
  8
0
 62
     0
 10
264.557
 20
83.6828
 30
0.0
 11
264.557
 21
78.9838
 31
0.0
  0
LINE
  8
0
 62
     0
 10
264.557
 20
78.9838
 30
0.0
 11
278.557
 21
78.9838
 31
0.0
  0
LINE
  8
0
 62
     0
 10
278.557
 20
78.9838
 30
0.0
 11
278.557
 21
83.6828
 31
0.0
  0
LINE
  8
0
 62
     0
 10
278.557
 20
83.6828
 30
0.0
 11
280.082
 21
83.6828
 31
0.0
  0
LINE
  8
0
 62
     0
 10
280.082
 20
83.6828
 30
0.0
 11
280.082
 21
79.2138
 31
0.0
  0
LINE
  8
0
 62
     0
 10
280.082
 20
79.2138
 30
0.0
 11
281.806
 21
79.2138
 31
0.0
  0
LINE
  8
0
 62
     0
 10
281.806
 20
79.2138
 30
0.0
 11
281.806
 21
78.0136
 31
0.0
  0
LINE
  8
0
 62
     0
 10
281.806
 20
78.0136
 30
0.0
 11
285.107
 21
78.0136
 31
0.0
  0
LINE
  8
0
 62
     0
 10
285.107
 20
78.0136
 30
0.0
 11
285.107
 21
79.2138
 31
0.0
  0
LINE
  8
0
 62
     0
 10
285.107
 20
79.2138
 30
0.0
 11
286.832
 21
79.2138
 31
0.0
  0
LINE
  8
0
 62
     0
 10
286.832
 20
79.2138
 30
0.0
 11
286.832
 21
85.4837
 31
0.0
  0
LINE
  8
0
 62
     0
 10
286.832
 20
85.4837
 30
0.0
 11
287.656
 21
85.4837
 31
0.0
  0
LINE
  8
0
 62
     0
 10
287.656
 20
85.4837
 30
0.0
 11
287.656
 21
88.2826
 31
0.0
  0
LINE
  8
0
 62
     0
 10
287.656
 20
88.2826
 30
0.0
 11
286.832
 21
88.2826
 31
0.0
  0
LINE
  8
0
 62
     0
 10
286.832
 20
88.2826
 30
0.0
 11
286.832
 21
91.5127
 31
0.0
  0
LINE
  8
0
 62
     0
 10
286.832
 20
91.5127
 30
0.0
 11
280.082
 21
91.5127
 31
0.0
  0
LINE
  8
0
 62
     0
 10
280.082
 20
91.5127
 30
0.0
 11
280.082
 21
88.2826
 31
0.0
  0
LINE
  8
0
 62
     0
 10
280.082
 20
88.2826
 30
0.0
 11
278.557
 21
88.2826
 31
0.0
  0
LINE
  8
0
 62
     0
 10
278.557
 20
88.2826
 30
0.0
 11
278.557
 21
92.9831
 31
0.0
  0
LINE
  8
0
 62
     0
 10
278.557
 20
92.9831
 30
0.0
 11
264.557
 21
92.9831
 31
0.0
  0
LINE
  8
0
 62
     0
 10
416.959
 20
92.9831
 30
0.0
 11
430.957
 21
92.9831
 31
0.0
  0
LINE
  8
0
 62
     0
 10
430.957
 20
92.9831
 30
0.0
 11
430.957
 21
78.9838
 31
0.0
  0
LINE
  8
0
 62
     0
 10
430.957
 20
78.9838
 30
0.0
 11
416.959
 21
78.9838
 31
0.0
  0
LINE
  8
0
 62
     0
 10
416.959
 20
78.9838
 30
0.0
 11
416.959
 21
92.9831
 31
0.0
  0
LINE
  8
0
 62
     0
 10
397.909
 20
92.9831
 30
0.0
 11
411.907
 21
92.9831
 31
0.0
  0
LINE
  8
0
 62
     0
 10
411.907
 20
92.9831
 30
0.0
 11
411.907
 21
78.9838
 31
0.0
  0
LINE
  8
0
 62
     0
 10
411.907
 20
78.9838
 30
0.0
 11
397.909
 21
78.9838
 31
0.0
  0
LINE
  8
0
 62
     0
 10
397.909
 20
78.9838
 30
0.0
 11
397.909
 21
92.9831
 31
0.0
  0
LINE
  8
0
 62
     0
 10
378.859
 20
92.9831
 30
0.0
 11
392.857
 21
92.9831
 31
0.0
  0
LINE
  8
0
 62
     0
 10
392.857
 20
92.9831
 30
0.0
 11
392.857
 21
78.9838
 31
0.0
  0
LINE
  8
0
 62
     0
 10
392.857
 20
78.9838
 30
0.0
 11
378.859
 21
78.9838
 31
0.0
  0
LINE
  8
0
 62
     0
 10
378.859
 20
78.9838
 30
0.0
 11
378.859
 21
92.9831
 31
0.0
  0
LINE
  8
0
 62
     0
 10
359.809
 20
92.9831
 30
0.0
 11
373.807
 21
92.9831
 31
0.0
  0
LINE
  8
0
 62
     0
 10
373.807
 20
92.9831
 30
0.0
 11
373.807
 21
78.9838
 31
0.0
  0
LINE
  8
0
 62
     0
 10
373.807
 20
78.9838
 30
0.0
 11
359.809
 21
78.9838
 31
0.0
  0
LINE
  8
0
 62
     0
 10
359.809
 20
78.9838
 30
0.0
 11
359.809
 21
92.9831
 31
0.0
  0
LINE
  8
0
 62
     0
 10
335.995
 20
92.9831
 30
0.0
 11
349.994
 21
92.9831
 31
0.0
  0
LINE
  8
0
 62
     0
 10
349.994
 20
92.9831
 30
0.0
 11
349.994
 21
78.9838
 31
0.0
  0
LINE
  8
0
 62
     0
 10
349.994
 20
78.9838
 30
0.0
 11
335.995
 21
78.9838
 31
0.0
  0
LINE
  8
0
 62
     0
 10
335.995
 20
78.9838
 30
0.0
 11
335.995
 21
92.9831
 31
0.0
  0
LINE
  8
0
 62
     0
 10
316.945
 20
92.9831
 30
0.0
 11
330.944
 21
92.9831
 31
0.0
  0
LINE
  8
0
 62
     0
 10
330.944
 20
92.9831
 30
0.0
 11
330.944
 21
78.9838
 31
0.0
  0
LINE
  8
0
 62
     0
 10
330.944
 20
78.9838
 30
0.0
 11
316.945
 21
78.9838
 31
0.0
  0
LINE
  8
0
 62
     0
 10
316.945
 20
78.9838
 30
0.0
 11
316.945
 21
92.9831
 31
0.0
  0
LINE
  8
0
 62
     0
 10
297.895
 20
92.9831
 30
0.0
 11
311.894
 21
92.9831
 31
0.0
  0
LINE
  8
0
 62
     0
 10
311.894
 20
92.9831
 30
0.0
 11
311.894
 21
78.9838
 31
0.0
  0
LINE
  8
0
 62
     0
 10
311.894
 20
78.9838
 30
0.0
 11
297.895
 21
78.9838
 31
0.0
  0
LINE
  8
0
 62
     0
 10
297.895
 20
78.9838
 30
0.0
 11
297.895
 21
92.9831
 31
0.0
  0
LINE
  8
0
 62
     0
 10
235.982
 20
92.9831
 30
0.0
 11
249.982
 21
92.9831
 31
0.0
  0
LINE
  8
0
 62
     0
 10
249.982
 20
92.9831
 30
0.0
 11
249.982
 21
78.9838
 31
0.0
  0
LINE
  8
0
 62
     0
 10
249.982
 20
78.9838
 30
0.0
 11
235.982
 21
78.9838
 31
0.0
  0
LINE
  8
0
 62
     0
 10
235.982
 20
78.9838
 30
0.0
 11
235.982
 21
92.9831
 31
0.0
  0
LINE
  8
0
 62
     0
 10
216.932
 20
92.9831
 30
0.0
 11
230.932
 21
92.9831
 31
0.0
  0
LINE
  8
0
 62
     0
 10
230.932
 20
92.9831
 30
0.0
 11
230.932
 21
78.9838
 31
0.0
  0
LINE
  8
0
 62
     0
 10
230.932
 20
78.9838
 30
0.0
 11
216.932
 21
78.9838
 31
0.0
  0
LINE
  8
0
 62
     0
 10
216.932
 20
78.9838
 30
0.0
 11
216.932
 21
92.9831
 31
0.0
  0
LINE
  8
0
 62
     0
 10
197.882
 20
92.9831
 30
0.0
 11
211.882
 21
92.9831
 31
0.0
  0
LINE
  8
0
 62
     0
 10
211.882
 20
92.9831
 30
0.0
 11
211.882
 21
78.9838
 31
0.0
  0
LINE
  8
0
 62
     0
 10
211.882
 20
78.9838
 30
0.0
 11
197.882
 21
78.9838
 31
0.0
  0
LINE
  8
0
 62
     0
 10
197.882
 20
78.9838
 30
0.0
 11
197.882
 21
92.9831
 31
0.0
  0
LINE
  8
0
 62
     0
 10
178.832
 20
92.9831
 30
0.0
 11
192.832
 21
92.9831
 31
0.0
  0
LINE
  8
0
 62
     0
 10
192.832
 20
92.9831
 30
0.0
 11
192.832
 21
78.9838
 31
0.0
  0
LINE
  8
0
 62
     0
 10
192.832
 20
78.9838
 30
0.0
 11
178.832
 21
78.9838
 31
0.0
  0
LINE
  8
0
 62
     0
 10
178.832
 20
78.9838
 30
0.0
 11
178.832
 21
92.9831
 31
0.0
  0
LINE
  8
0
 62
     0
 10
159.782
 20
92.9831
 30
0.0
 11
173.782
 21
92.9831
 31
0.0
  0
LINE
  8
0
 62
     0
 10
173.782
 20
92.9831
 30
0.0
 11
173.782
 21
78.9838
 31
0.0
  0
LINE
  8
0
 62
     0
 10
173.782
 20
78.9838
 30
0.0
 11
159.782
 21
78.9838
 31
0.0
  0
LINE
  8
0
 62
     0
 10
159.782
 20
78.9838
 30
0.0
 11
159.782
 21
92.9831
 31
0.0
  0
LINE
  8
0
 62
     0
 10
140.732
 20
92.9831
 30
0.0
 11
154.732
 21
92.9831
 31
0.0
  0
LINE
  8
0
 62
     0
 10
154.732
 20
92.9831
 30
0.0
 11
154.732
 21
78.9838
 31
0.0
  0
LINE
  8
0
 62
     0
 10
154.732
 20
78.9838
 30
0.0
 11
140.732
 21
78.9838
 31
0.0
  0
LINE
  8
0
 62
     0
 10
140.732
 20
78.9838
 30
0.0
 11
140.732
 21
92.9831
 31
0.0
  0
LINE
  8
0
 62
     0
 10
116.918
 20
92.9831
 30
0.0
 11
130.919
 21
92.9831
 31
0.0
  0
LINE
  8
0
 62
     0
 10
130.919
 20
92.9831
 30
0.0
 11
130.919
 21
78.9838
 31
0.0
  0
LINE
  8
0
 62
     0
 10
130.919
 20
78.9838
 30
0.0
 11
116.918
 21
78.9838
 31
0.0
  0
LINE
  8
0
 62
     0
 10
116.918
 20
78.9838
 30
0.0
 11
116.918
 21
92.9831
 31
0.0
  0
LINE
  8
0
 62
     0
 10
97.8683
 20
92.9831
 30
0.0
 11
111.869
 21
92.9831
 31
0.0
  0
LINE
  8
0
 62
     0
 10
111.869
 20
92.9831
 30
0.0
 11
111.869
 21
78.9838
 31
0.0
  0
LINE
  8
0
 62
     0
 10
111.869
 20
78.9838
 30
0.0
 11
97.8683
 21
78.9838
 31
0.0
  0
LINE
  8
0
 62
     0
 10
97.8683
 20
78.9838
 30
0.0
 11
97.8683
 21
92.9831
 31
0.0
  0
LINE
  8
0
 62
     0
 10
78.8197
 20
92.9831
 30
0.0
 11
92.819
 21
92.9831
 31
0.0
  0
LINE
  8
0
 62
     0
 10
92.819
 20
92.9831
 30
0.0
 11
92.819
 21
78.9838
 31
0.0
  0
LINE
  8
0
 62
     0
 10
92.819
 20
78.9838
 30
0.0
 11
78.8197
 21
78.9838
 31
0.0
  0
LINE
  8
0
 62
     0
 10
78.8197
 20
78.9838
 30
0.0
 11
78.8197
 21
92.9831
 31
0.0
  0
LINE
  8
0
 62
     0
 10
59.7697
 20
92.9831
 30
0.0
 11
73.769
 21
92.9831
 31
0.0
  0
LINE
  8
0
 62
     0
 10
73.769
 20
92.9831
 30
0.0
 11
73.769
 21
78.9838
 31
0.0
  0
LINE
  8
0
 62
     0
 10
73.769
 20
78.9838
 30
0.0
 11
59.7697
 21
78.9838
 31
0.0
  0
LINE
  8
0
 62
     0
 10
59.7697
 20
78.9838
 30
0.0
 11
59.7697
 21
92.9831
 31
0.0
  0
LINE
  8
0
 62
     0
 10
40.7197
 20
92.9831
 30
0.0
 11
54.719
 21
92.9831
 31
0.0
  0
LINE
  8
0
 62
     0
 10
54.719
 20
92.9831
 30
0.0
 11
54.719
 21
78.9838
 31
0.0
  0
LINE
  8
0
 62
     0
 10
54.719
 20
78.9838
 30
0.0
 11
40.7197
 21
78.9838
 31
0.0
  0
LINE
  8
0
 62
     0
 10
40.7197
 20
78.9838
 30
0.0
 11
40.7197
 21
92.9831
 31
0.0
  0
LINE
  8
0
 62
     0
 10
21.6697
 20
92.9831
 30
0.0
 11
35.669
 21
92.9831
 31
0.0
  0
LINE
  8
0
 62
     0
 10
35.669
 20
92.9831
 30
0.0
 11
35.669
 21
78.9838
 31
0.0
  0
LINE
  8
0
 62
     0
 10
35.669
 20
78.9838
 30
0.0
 11
21.6697
 21
78.9838
 31
0.0
  0
LINE
  8
0
 62
     0
 10
21.6697
 20
78.9838
 30
0.0
 11
21.6697
 21
92.9831
 31
0.0
  0
LINE
  8
0
 62
     0
 10
2.61965
 20
92.9831
 30
0.0
 11
16.6192
 21
92.9831
 31
0.0
  0
LINE
  8
0
 62
     0
 10
16.6192
 20
92.9831
 30
0.0
 11
16.6192
 21
78.9838
 31
0.0
  0
LINE
  8
0
 62
     0
 10
16.6192
 20
78.9838
 30
0.0
 11
2.61965
 21
78.9838
 31
0.0
  0
LINE
  8
0
 62
     0
 10
2.61965
 20
78.9838
 30
0.0
 11
2.61965
 21
92.9831
 31
0.0
  0
LINE
  8
0
 62
     0
 10
235.982
 20
112.033
 30
0.0
 11
249.982
 21
112.033
 31
0.0
  0
LINE
  8
0
 62
     0
 10
249.982
 20
112.033
 30
0.0
 11
249.982
 21
98.0338
 31
0.0
  0
LINE
  8
0
 62
     0
 10
249.982
 20
98.0338
 30
0.0
 11
235.982
 21
98.0338
 31
0.0
  0
LINE
  8
0
 62
     0
 10
235.982
 20
98.0338
 30
0.0
 11
235.982
 21
112.033
 31
0.0
  0
LINE
  8
0
 62
     0
 10
216.932
 20
112.033
 30
0.0
 11
230.932
 21
112.033
 31
0.0
  0
LINE
  8
0
 62
     0
 10
230.932
 20
112.033
 30
0.0
 11
230.932
 21
98.0338
 31
0.0
  0
LINE
  8
0
 62
     0
 10
230.932
 20
98.0338
 30
0.0
 11
216.932
 21
98.0338
 31
0.0
  0
LINE
  8
0
 62
     0
 10
216.932
 20
98.0338
 30
0.0
 11
216.932
 21
112.033
 31
0.0
  0
LINE
  8
0
 62
     0
 10
197.882
 20
112.033
 30
0.0
 11
211.882
 21
112.033
 31
0.0
  0
LINE
  8
0
 62
     0
 10
211.882
 20
112.033
 30
0.0
 11
211.882
 21
98.0338
 31
0.0
  0
LINE
  8
0
 62
     0
 10
211.882
 20
98.0338
 30
0.0
 11
197.882
 21
98.0338
 31
0.0
  0
LINE
  8
0
 62
     0
 10
197.882
 20
98.0338
 30
0.0
 11
197.882
 21
112.033
 31
0.0
  0
LINE
  8
0
 62
     0
 10
178.832
 20
112.033
 30
0.0
 11
192.832
 21
112.033
 31
0.0
  0
LINE
  8
0
 62
     0
 10
192.832
 20
112.033
 30
0.0
 11
192.832
 21
98.0338
 31
0.0
  0
LINE
  8
0
 62
     0
 10
192.832
 20
98.0338
 30
0.0
 11
178.832
 21
98.0338
 31
0.0
  0
LINE
  8
0
 62
     0
 10
178.832
 20
98.0338
 30
0.0
 11
178.832
 21
112.033
 31
0.0
  0
LINE
  8
0
 62
     0
 10
159.782
 20
112.033
 30
0.0
 11
173.782
 21
112.033
 31
0.0
  0
LINE
  8
0
 62
     0
 10
173.782
 20
112.033
 30
0.0
 11
173.782
 21
98.0338
 31
0.0
  0
LINE
  8
0
 62
     0
 10
173.782
 20
98.0338
 30
0.0
 11
159.782
 21
98.0338
 31
0.0
  0
LINE
  8
0
 62
     0
 10
159.782
 20
98.0338
 30
0.0
 11
159.782
 21
112.033
 31
0.0
  0
LINE
  8
0
 62
     0
 10
140.732
 20
112.033
 30
0.0
 11
154.732
 21
112.033
 31
0.0
  0
LINE
  8
0
 62
     0
 10
154.732
 20
112.033
 30
0.0
 11
154.732
 21
98.0338
 31
0.0
  0
LINE
  8
0
 62
     0
 10
154.732
 20
98.0338
 30
0.0
 11
140.732
 21
98.0338
 31
0.0
  0
LINE
  8
0
 62
     0
 10
140.732
 20
98.0338
 30
0.0
 11
140.732
 21
112.033
 31
0.0
  0
LINE
  8
0
 62
     0
 10
116.918
 20
112.033
 30
0.0
 11
130.919
 21
112.033
 31
0.0
  0
LINE
  8
0
 62
     0
 10
130.919
 20
112.033
 30
0.0
 11
130.919
 21
98.0338
 31
0.0
  0
LINE
  8
0
 62
     0
 10
130.919
 20
98.0338
 30
0.0
 11
116.918
 21
98.0338
 31
0.0
  0
LINE
  8
0
 62
     0
 10
116.918
 20
98.0338
 30
0.0
 11
116.918
 21
112.033
 31
0.0
  0
LINE
  8
0
 62
     0
 10
97.8683
 20
112.033
 30
0.0
 11
111.869
 21
112.033
 31
0.0
  0
LINE
  8
0
 62
     0
 10
111.869
 20
112.033
 30
0.0
 11
111.869
 21
98.0338
 31
0.0
  0
LINE
  8
0
 62
     0
 10
111.869
 20
98.0338
 30
0.0
 11
97.8683
 21
98.0338
 31
0.0
  0
LINE
  8
0
 62
     0
 10
97.8683
 20
98.0338
 30
0.0
 11
97.8683
 21
112.033
 31
0.0
  0
LINE
  8
0
 62
     0
 10
78.8197
 20
112.033
 30
0.0
 11
92.819
 21
112.033
 31
0.0
  0
LINE
  8
0
 62
     0
 10
92.819
 20
112.033
 30
0.0
 11
92.819
 21
98.0338
 31
0.0
  0
LINE
  8
0
 62
     0
 10
92.819
 20
98.0338
 30
0.0
 11
78.8197
 21
98.0338
 31
0.0
  0
LINE
  8
0
 62
     0
 10
78.8197
 20
98.0338
 30
0.0
 11
78.8197
 21
112.033
 31
0.0
  0
LINE
  8
0
 62
     0
 10
59.7697
 20
112.033
 30
0.0
 11
73.769
 21
112.033
 31
0.0
  0
LINE
  8
0
 62
     0
 10
73.769
 20
112.033
 30
0.0
 11
73.769
 21
98.0338
 31
0.0
  0
LINE
  8
0
 62
     0
 10
73.769
 20
98.0338
 30
0.0
 11
59.7697
 21
98.0338
 31
0.0
  0
LINE
  8
0
 62
     0
 10
59.7697
 20
98.0338
 30
0.0
 11
59.7697
 21
112.033
 31
0.0
  0
LINE
  8
0
 62
     0
 10
40.7197
 20
112.033
 30
0.0
 11
54.719
 21
112.033
 31
0.0
  0
LINE
  8
0
 62
     0
 10
54.719
 20
112.033
 30
0.0
 11
54.719
 21
98.0338
 31
0.0
  0
LINE
  8
0
 62
     0
 10
54.719
 20
98.0338
 30
0.0
 11
40.7197
 21
98.0338
 31
0.0
  0
LINE
  8
0
 62
     0
 10
40.7197
 20
98.0338
 30
0.0
 11
40.7197
 21
112.033
 31
0.0
  0
LINE
  8
0
 62
     0
 10
21.6697
 20
112.033
 30
0.0
 11
35.669
 21
112.033
 31
0.0
  0
LINE
  8
0
 62
     0
 10
35.669
 20
112.033
 30
0.0
 11
35.669
 21
98.0338
 31
0.0
  0
LINE
  8
0
 62
     0
 10
35.669
 20
98.0338
 30
0.0
 11
21.6697
 21
98.0338
 31
0.0
  0
LINE
  8
0
 62
     0
 10
21.6697
 20
98.0338
 30
0.0
 11
21.6697
 21
112.033
 31
0.0
  0
LINE
  8
0
 62
     0
 10
2.61965
 20
112.033
 30
0.0
 11
16.6192
 21
112.033
 31
0.0
  0
LINE
  8
0
 62
     0
 10
16.6192
 20
112.033
 30
0.0
 11
16.6192
 21
98.0338
 31
0.0
  0
LINE
  8
0
 62
     0
 10
16.6192
 20
98.0338
 30
0.0
 11
2.61965
 21
98.0338
 31
0.0
  0
LINE
  8
0
 62
     0
 10
2.61965
 20
98.0338
 30
0.0
 11
2.61965
 21
112.033
 31
0.0
  0
ENDSEC
  0
EOF
